<?xml version="1.0" encoding="utf-8"?>
<!-- Generator: Adobe Illustrator 21.1.0, SVG Export Plug-In . SVG Version: 6.00 Build 0)  -->
<svg version="1.1" id="Layer_1" xmlns="http://www.w3.org/2000/svg" xmlns:xlink="http://www.w3.org/1999/xlink" x="0px" y="0px"
	 viewBox="0 0 64 64" style="enable-background:new 0 0 64 64;" xml:space="preserve">
<style type="text/css">
	.st0{fill:#1D1D1B;}
</style>
<title></title>
<path class="st0" d="M32.4,56.2c-0.4,0.7-1.2,1-1.9,0.6c-0.2-0.1-0.4-0.3-0.5-0.5c-0.3-0.7,0-1.4,0.7-1.7c0.2-0.1,0.4-0.1,0.6-0.1
	c0.7,0,1.2,0.5,1.3,1.2C32.5,55.9,32.5,56.1,32.4,56.2L32.4,56.2z M24.3,54.2c-0.4,0.7-1.2,1-1.9,0.6c-0.2-0.1-0.4-0.3-0.5-0.5
	c-0.3-0.7,0-1.4,0.7-1.7c0.2-0.1,0.4-0.1,0.6-0.1c0.7,0,1.2,0.5,1.3,1.2C24.4,53.8,24.4,54,24.3,54.2z M57.2,23.3
	c-0.2-0.8-2.7-7.2-2.9-7.5s-3.2-0.1-3.9,0s-1.5,1.3-1.5,1.3S42.8,3.7,42.3,3.4s-8.2-0.2-8.6,0s-0.2,9.1-0.2,9.1
	c-1.2-0.2-2.4-0.2-3.5-0.1c0,0-0.4-8.6-0.5-8.9s-6.3-0.3-7.1,0s-6,8.3-9.6,16.5C10.6,25,9,30.3,8,35.7c-0.3,0.2-1.2,0.2-1.4,0.5
	c0,2.6,0.4,5.2,1,7.7c0.2,0.7,0.9,1.2,1.6,1.1l1.3,2.5c0.8,1.5,1.9,2.9,3.2,3.9c-0.3,0.7-0.6,1.4-0.7,2.1c0,0.8,7,7.4,18.5,7.2
	s18.7-7.5,18.8-8.1c0.1-0.8,0.1-1.6,0.1-2.4c0,0,1.8-1.4,3.9-5.9c1.3-2.9,1.6-6.1,0.9-9.2c0,0,1.4-0.7,1.6-1.2S57.5,24.1,57.2,23.3
	L57.2,23.3z M35.8,16.9c2.6,0.5,5,1.3,7.4,2.4c2,1.1,3.7,2.9,4.7,5c0,0-0.6,2.7-0.7,2.9c0,0-0.2,0.2-0.5,0.4c0-0.7-0.1-1.5-0.5-2.1
	c-1.2-1.6-3.3-2.2-5.1-1.4c-1.8,0.8-2.7,2.8-2.1,4.6c0.5,1.5,1.9,2.5,3.5,2.4l-3.9,3c-0.3-0.9-0.9-1.8-1.5-2.5
	c-0.5-0.3-1-0.5-1.5-0.7C35.5,30.8,35.7,17.2,35.8,16.9L35.8,16.9z M12.8,25.6c1.9-2.9,6-5.4,8.4-6.5c2-0.9,4-1.7,6.1-2.2
	c0.1,0,0.8,12,0.8,12l-1.2-1.7c0,0-0.5,0.3-0.4,0.5s1.8,2.9,1.8,3s-0.4,0.4-0.6,0.5c-0.1,0.1-0.2,0.2-0.3,0.2
	c-0.6-1-1.3-1.9-2.1-2.7c-0.2,0-0.5,0.3-0.4,0.4s2,2.7,1.9,2.8s-0.9,0.8-0.9,0.8c-0.5-0.8-1.1-1.5-1.7-2.2c-0.2,0-0.5,0.4-0.5,0.5
	s1.7,2.4,1.6,2.5c-0.2,0.2-0.3,0.5-0.5,0.7c-0.6-0.8-1.2-1.6-1.9-2.3c-0.1,0-0.5,0.4-0.4,0.5s1.8,2.3,1.8,2.4s-0.4,0.8-0.4,0.9
	l-0.1,0.2c-0.8-1.1-1.6-2.2-2.5-3.2c-0.1,0-0.5,0.2-0.4,0.4s2.6,3.8,2.6,3.8C23.1,37,22.8,37,22.4,37c-0.1,0-2.7-3.4-2.8-3.3
	S19,34,19,34.1s2.3,3,2.2,3c-0.6,0.1-1.2,0.1-1.8,0.1c-0.2-0.1-1.6-2.3-1.8-2.3s-0.5,0.3-0.5,0.4s1.2,2,1.1,2s-3.9-0.3-5.8-0.6
	s-2.9-0.6-2.9-0.8S10.7,28.6,12.8,25.6z M12.1,47.1c-0.6-1.4-1.1-2.5-0.9-2.6s12.7-2.9,12.8-2.8c0.2,0.4,0.4,0.8,0.6,1.2
	c-0.5,0.6-1.1,1.1-1.7,1.5c0-0.1-0.8-1.5-1-1.4s-0.5,0.2-0.4,0.3s0.8,1.6,0.8,1.6s-0.8,0.8-0.9,0.7c-0.5-0.8-1-1.5-1.5-2.2
	c-0.1,0-0.5,0.4-0.5,0.4c0.5,0.7,0.9,1.5,1.2,2.3c-0.3,0.2-0.6,0.5-1,0.6c-0.6-0.9-1.2-1.8-1.9-2.6c-0.2,0-0.8,0.2-0.8,0.5
	s1.7,2.7,1.6,2.8l-0.8,0.5c0,0-2-3.1-2.2-3.1c-0.3,0.1-0.5,0.2-0.8,0.4c0,0,2.1,3.3,2.1,3.4c-0.2,0.2-0.5,0.4-0.7,0.6
	c-0.8-1.3-1.7-2.5-2.7-3.7c-0.1,0.1-0.7,0.3-0.6,0.4s2.5,4,2.5,4l-0.7,0.7C13.8,49.5,12.9,48.4,12.1,47.1L12.1,47.1z M51.5,46.2
	c-0.2,0.4-0.6,0.8-0.9,1.2c-0.1-0.8-0.4-1.7-0.7-2.5c-0.2,0-0.8,0.2-0.7,0.4s0.7,2.9,0.7,3s-0.7,0.8-0.7,0.8
	c-0.1-0.1-0.2-0.2-0.3-0.3s-0.9-4.3-1-4.4s-0.8-0.3-0.8,0s0.8,3.7,0.6,3.7S46,46.9,46,46.9s0-2.7-0.3-2.9s-0.8-0.4-0.8-0.2
	s0.1,2.3,0.1,2.3l-1.2-1c0,0,0.1-1.4-0.1-1.5s-1-0.4-1-0.3s-0.2,1-0.2,1s-3.3-1.9-3.3-2c0-0.2,0-0.4,0.1-0.5
	c0.2,0,13.6,1.4,13.6,1.6S51.9,45.5,51.5,46.2z M22.5,9.6c-1.4,0.4-2.2,1.9-1.8,3.3c0.1,0.3,0.2,0.5,0.3,0.7c0.7,1,3.7,1,4.2-1.1
	c0.4-1.2-0.3-2.5-1.5-2.9C23.3,9.5,22.9,9.5,22.5,9.6z M24.6,12.3c-0.4,1-1.5,1.5-2.5,1.1c-0.2-0.1-0.4-0.2-0.6-0.4
	c-0.6-0.9-0.3-2.1,0.6-2.6c0.2-0.1,0.3-0.2,0.5-0.2c0.9-0.2,1.8,0.4,2,1.3C24.7,11.7,24.7,12,24.6,12.3L24.6,12.3z M42.4,12.3
	c0.4-1.2-0.3-2.5-1.5-2.9c-0.4-0.1-0.8-0.1-1.2,0c-1.4,0.4-2.2,1.9-1.8,3.3c0.1,0.3,0.2,0.5,0.3,0.7C38.9,14.4,41.9,14.3,42.4,12.3
	L42.4,12.3z M39.8,10c0.9-0.2,1.8,0.3,2,1.2c0.1,0.3,0.1,0.6,0,0.9c-0.4,1-1.5,1.5-2.5,1.1c-0.2-0.1-0.4-0.2-0.6-0.4
	c-0.6-0.9-0.3-2.1,0.5-2.6C39.5,10.1,39.6,10.1,39.8,10z M20.6,31c1.8-0.6,2.8-2.5,2.2-4.3c-0.1-0.3-0.2-0.6-0.4-0.8
	c-1.1-1.7-3.3-2.3-5.2-1.5c-1.8,0.8-2.6,2.8-2.1,4.6C15.7,31,18.3,31.9,20.6,31z M19.9,22.3c0.4-0.5,0.8-0.8,1.3-1.1
	c1-0.7,2.6-1,2.6-1.2c0-0.3-0.1-0.5-0.2-0.8c-0.1-0.1-0.3,0.1-2.3,1c-0.9,0.4-1.8,0.9-2.5,1.6C18.8,22.1,19.9,22.3,19.9,22.3
	L19.9,22.3z"/>
</svg>
