<?xml version="1.0" encoding="utf-8"?>
<!-- Generator: Adobe Illustrator 21.1.0, SVG Export Plug-In . SVG Version: 6.00 Build 0)  -->
<svg version="1.1" id="Layer_1" xmlns="http://www.w3.org/2000/svg" xmlns:xlink="http://www.w3.org/1999/xlink" x="0px" y="0px"
	 viewBox="0 0 64 64" style="enable-background:new 0 0 64 64;" xml:space="preserve">
<title></title>
<g>
	<circle cx="32.2" cy="39.1" r="5"/>
	<path d="M41.4,18.7c3-0.3,4.7-0.8,4.8-0.8c0.6-0.1,0.9-0.6,0.9-1.2c0-8.2-6.7-14.9-14.9-14.9c-3.8,0-7.3,1.5-9.9,3.8V3
		c0-0.7-0.6-1.2-1.2-1.2c-0.7,0-1.2,0.6-1.2,1.2v5.4c-1.6,2.4-2.5,5.2-2.5,8.2c0,0.6,0.4,1.1,0.9,1.2c0.1,0,1.8,0.4,4.8,0.8
		C15.3,22.2,9.9,30,9.9,39.1c0,12.3,10,22.4,22.4,22.4s22.4-10,22.4-22.4C54.6,30,49.2,22.2,41.4,18.7z M44.8,40.4h-5.2
		c-0.5,3.1-3,5.6-6.1,6.1v5.2c3.1,0.5,5.5,2.9,6.1,5.9c-0.8,0.3-1.6,0.6-2.4,0.8c-0.3-2.4-2.4-4.3-4.9-4.3c-2.5,0-4.6,1.9-4.9,4.3
		c-0.8-0.2-1.6-0.5-2.4-0.8c0.6-3,3-5.4,6.1-5.9v-5.2c-3.1-0.5-5.6-3-6.1-6.1h-5.2c-0.5,3.1-2.9,5.5-5.9,6.1
		c-0.3-0.8-0.6-1.6-0.8-2.4c2.4-0.3,4.3-2.4,4.3-4.9c0-2.5-1.9-4.6-4.3-4.9c0.2-0.8,0.5-1.6,0.8-2.4c3,0.6,5.4,3,5.9,6.1h5.2
		c0.5-3.1,3-5.6,6.1-6.1v-5.2c-3.1-0.5-5.5-2.9-6.1-5.9c0.8-0.3,1.6-0.6,2.4-0.8c0.3,2.4,2.4,4.3,4.9,4.3c2.5,0,4.6-1.9,4.9-4.3
		c0.8,0.2,1.6,0.5,2.4,0.8c-0.6,3-3,5.4-6.1,5.9v5.2c3.1,0.5,5.6,3,6.1,6.1h5.2c0.5-3.1,2.9-5.5,5.9-6.1c0.3,0.8,0.6,1.6,0.8,2.4
		c-2.4,0.3-4.3,2.4-4.3,4.9c0,2.5,1.9,4.6,4.3,4.9c-0.2,0.8-0.5,1.6-0.8,2.4C47.7,45.8,45.3,43.4,44.8,40.4z M36,11.8
		c0.7,0,1.2,0.6,1.2,1.2c0,0.7-0.6,1.2-1.2,1.2s-1.2-0.6-1.2-1.2C34.7,12.3,35.3,11.8,36,11.8z M32.2,6.8c1.4,0,2.5,1.1,2.5,2.5
		s-1.1,2.5-2.5,2.5c-1.4,0-2.5-1.1-2.5-2.5S30.9,6.8,32.2,6.8z"/>
</g>
</svg>
