<?xml version="1.0" encoding="utf-8"?>
<!-- Generator: Adobe Illustrator 21.1.0, SVG Export Plug-In . SVG Version: 6.00 Build 0)  -->
<svg version="1.1" id="Layer_1" xmlns="http://www.w3.org/2000/svg" xmlns:xlink="http://www.w3.org/1999/xlink" x="0px" y="0px"
	 viewBox="0 0 64 64" style="enable-background:new 0 0 64 64;" xml:space="preserve">
<title></title>
<g>
	<circle cx="32.1" cy="18.3" r="3.7"/>
	<path d="M32.1,2.2C15.8,2.2,2.5,15.5,2.5,31.9s13.3,29.6,29.6,29.6s29.6-13.3,29.6-29.6S48.5,2.2,32.1,2.2z M59.3,31.9
		c0,0.4,0,0.8-0.1,1.2H5C5,32.7,5,32.3,5,31.9c0-0.4,0-0.8,0.1-1.2h54.2C59.2,31.1,59.3,31.5,59.3,31.9z M8.7,45.5
		C8.7,45.5,8.7,45.5,8.7,45.5c0-0.8,0.5-1.3,1.2-1.3h6.2c0.7,0,1.2,0.6,1.2,1.2s-0.6,1.2-1.2,1.2H9.9c-0.2,0-0.4-0.1-0.6-0.2
		C9.1,46.2,8.9,45.8,8.7,45.5z M7.4,38c0-0.7,0.6-1.2,1.2-1.2H21c0.7,0,1.2,0.6,1.2,1.2s-0.6,1.2-1.2,1.2H8.7
		C8,39.3,7.4,38.7,7.4,38z M37.1,43c0-0.7,0.6-1.2,1.2-1.2h13.6c0.7,0,1.2,0.6,1.2,1.2s-0.6,1.2-1.2,1.2H38.3
		C37.6,44.2,37.1,43.7,37.1,43z M50.7,51.6C50.7,51.6,50.7,51.6,50.7,51.6l-10,0c-0.7,0-1.2-0.6-1.2-1.2s0.6-1.2,1.2-1.2h9.9
		c0.7,0,1.2,0.6,1.2,1.2c0,0,0,0.1,0,0.1C51.5,50.9,51.1,51.2,50.7,51.6z M51.9,13.3C51.9,13.3,51.9,13.3,51.9,13.3
		c0,0.8-0.5,1.3-1.2,1.3h-2.5c-0.7,0-1.2-0.6-1.2-1.2s0.6-1.2,1.2-1.2h2.5c0,0,0.1,0,0.1,0C51.1,12.5,51.5,12.9,51.9,13.3z
		 M56.8,20.5c0,0.1,0,0.2,0,0.2c0,0.7-0.6,1.2-1.2,1.2h-7.4c-0.7,0-1.2-0.6-1.2-1.2s0.6-1.2,1.2-1.2h7.4c0.4,0,0.7,0.2,0.9,0.4
		C56.6,20.1,56.7,20.3,56.8,20.5z M19.8,18.3c0,0.7-0.6,1.2-1.2,1.2h-7.4c-0.7,0-1.2-0.6-1.2-1.2s0.6-1.2,1.2-1.2h7.4
		C19.2,17.1,19.8,17.6,19.8,18.3z M32.1,9.7c4.8,0,8.6,3.9,8.6,8.6s-3.9,8.6-8.6,8.6s-8.6-3.9-8.6-8.6S27.4,9.7,32.1,9.7z"/>
</g>
</svg>
