<?xml version="1.0" encoding="utf-8"?>
<!-- Generator: Adobe Illustrator 21.1.0, SVG Export Plug-In . SVG Version: 6.00 Build 0)  -->
<svg version="1.1" id="Layer_1" xmlns="http://www.w3.org/2000/svg" xmlns:xlink="http://www.w3.org/1999/xlink" x="0px" y="0px"
	 viewBox="0 0 64 64" style="enable-background:new 0 0 64 64;" xml:space="preserve">
<title></title>
<g>
	<circle cx="28.2" cy="18.1" r="3.8"/>
	<path d="M53.4,30.7c0.7,0,1.3-0.6,1.3-1.3v-5h3.8c0.7,0,1.3-0.6,1.3-1.3v-5c0-0.7-0.6-1.3-1.3-1.3h-6.3v-5H54c0.5,0,1-0.3,1.2-0.8
		c0.2-0.5,0.1-1-0.3-1.4C49.3,4.6,42,1.8,34.5,1.8C17.8,1.8,4.3,15.3,4.3,32s13.6,30.2,30.2,30.2c7.5,0,14.7-2.8,20.3-7.9
		c0.4-0.3,0.5-0.9,0.3-1.4c-0.2-0.5-0.7-0.8-1.2-0.8h-1.8v-2.5h6.3c0.7,0,1.3-0.6,1.3-1.3v-7.6c0-0.7-0.6-1.3-1.3-1.3h-8.8v-6.3H6.9
		c0-0.4-0.1-0.8-0.1-1.3c0-0.4,0-0.8,0.1-1.3H53.4z M42.1,16.9h5c0.7,0,1.3,0.6,1.3,1.3c0,0.7-0.6,1.3-1.3,1.3h-5
		c-0.7,0-1.3-0.6-1.3-1.3C40.8,17.4,41.4,16.9,42.1,16.9z M28.2,9.3c4.9,0,8.8,4,8.8,8.8s-4,8.8-8.8,8.8s-8.8-4-8.8-8.8
		S23.4,9.3,28.2,9.3z M13.1,16.9h2.5c0.7,0,1.3,0.6,1.3,1.3c0,0.7-0.6,1.3-1.3,1.3h-2.5c-0.7,0-1.3-0.6-1.3-1.3
		C11.8,17.4,12.4,16.9,13.1,16.9z M40.8,39.6h3.8c0.7,0,1.3,0.6,1.3,1.3c0,0.7-0.6,1.3-1.3,1.3h-3.8c-0.7,0-1.3-0.6-1.3-1.3
		C39.6,40.1,40.1,39.6,40.8,39.6z M18.1,47.1h-5c-0.7,0-1.3-0.6-1.3-1.3c0-0.7,0.6-1.3,1.3-1.3h5c0.7,0,1.3,0.6,1.3,1.3
		C19.4,46.6,18.8,47.1,18.1,47.1z M11.8,37h11.3c0.7,0,1.3,0.6,1.3,1.3c0,0.7-0.6,1.3-1.3,1.3H11.8c-0.7,0-1.3-0.6-1.3-1.3
		C10.6,37.6,11.1,37,11.8,37z"/>
</g>
</svg>
