<?xml version="1.0" encoding="utf-8"?>
<!-- Generator: Adobe Illustrator 21.1.0, SVG Export Plug-In . SVG Version: 6.00 Build 0)  -->
<svg version="1.1" id="Layer_1" xmlns="http://www.w3.org/2000/svg" xmlns:xlink="http://www.w3.org/1999/xlink" x="0px" y="0px"
	 viewBox="0 0 64 64" style="enable-background:new 0 0 64 64;" xml:space="preserve">
<title></title>
<g>
	<path d="M57.1,60.2l-2.5-10c-0.1-0.6-0.6-0.9-1.2-0.9h-1.2V34c1.5-0.5,2.5-1.9,2.5-3.5V23c0-2.1-1.7-3.7-3.7-3.7h-3.7v-2.5
		c0-8.3-6.7-15-15-15s-15,6.7-15,15v2.5h-3.7c-2.1,0-3.7,1.7-3.7,3.7v7.5c0,1.6,1,3,2.5,3.5v15.2h-1.2c-0.6,0-1.1,0.4-1.2,0.9
		l-2.5,10c-0.1,0.4,0,0.8,0.2,1.1c0.2,0.3,0.6,0.5,1,0.5h10c0.7,0,1.2-0.6,1.2-1.2V44.9c0.4,0.2,0.9,0.3,1.5,0.5l1.5,4.3
		c0.1,0.3,0.3,0.6,0.6,0.7c0.1,0,0.9,0.4,2.4,0.7l-1.1,6.7c-0.1,0.4,0,0.7,0.3,1c0.2,0.3,0.6,0.4,1,0.4h12.5c0.4,0,0.7-0.2,1-0.4
		c0.2-0.3,0.3-0.6,0.3-1l-1.1-6.7c1.6-0.3,2.4-0.7,2.4-0.7c0.3-0.1,0.5-0.4,0.6-0.7l1.5-4.3c0.6-0.2,1.1-0.3,1.5-0.5v15.6
		c0,0.7,0.6,1.2,1.2,1.2h10c0.4,0,0.7-0.2,1-0.5C57.1,61,57.2,60.6,57.1,60.2z M24.7,38c0-0.7,0.6-1.2,1.2-1.2h12.5
		c0.7,0,1.2,0.6,1.2,1.2s-0.6,1.2-1.2,1.2H25.9C25.2,39.3,24.7,38.7,24.7,38z M38.4,31.8H25.9c-0.7,0-1.2-0.6-1.2-1.2
		s0.6-1.2,1.2-1.2h12.5c0.7,0,1.2,0.6,1.2,1.2S39.1,31.8,38.4,31.8z M38.6,23.8C38.6,23.8,38.5,23.9,38.6,23.8c-0.1,0-0.1,0-0.1,0
		c-1.8,0.3-3.9,0.4-6.3,0.4c-2.4,0-4.5-0.2-6.3-0.4c0,0,0,0,0,0c0,0,0,0-0.1,0c-2.8-0.4-4.8-1-6.1-1.4v-2.7c0.9,0.4,2.6,1,5.1,1.4
		l1.1-10.7c0.1-0.6,0.6-1.1,1.2-1.1h10c0.6,0,1.2,0.5,1.2,1.1l1.1,10.7c2.6-0.5,4.3-1.1,5.1-1.4v2.7C43.3,22.9,41.3,23.4,38.6,23.8z
		 M39.6,18c0-0.7,0.6-1.2,1.2-1.2c0.7,0,1.2,0.6,1.2,1.2c0,0.7-0.6,1.2-1.2,1.2C40.2,19.3,39.6,18.7,39.6,18z M39.5,48.3
		c-0.9,0.3-3.3,1-7.3,1c-4,0-6.4-0.6-7.3-1L24,46c2.2,0.4,4.8,0.7,8.1,0.7c3.3,0,5.9-0.3,8.1-0.7L39.5,48.3z"/>
	<path d="M28.3,11.8l-1,9.7c1.4,0.2,3,0.3,4.9,0.3c1.8,0,3.4-0.1,4.9-0.3l-1-9.7H28.3z M32.1,19.3c-1.4,0-2.5-1.1-2.5-2.5
		s1.1-2.5,2.5-2.5s2.5,1.1,2.5,2.5S33.5,19.3,32.1,19.3z"/>
</g>
</svg>
