<?xml version="1.0" encoding="utf-8"?>
<!-- Generator: Adobe Illustrator 21.1.0, SVG Export Plug-In . SVG Version: 6.00 Build 0)  -->
<svg version="1.1" id="Layer_1" xmlns="http://www.w3.org/2000/svg" xmlns:xlink="http://www.w3.org/1999/xlink" x="0px" y="0px"
	 viewBox="0 0 64 64" style="enable-background:new 0 0 64 64;" xml:space="preserve">
<title></title>
<g id="Layer_1_1_">
	<g>
		<path d="M34.7,24c0-1.5-1.2-2.7-2.7-2.7c-1.5,0-2.7,1.2-2.7,2.7v0.7h5.3L34.7,24z M32,23.4c-0.4,0-0.8-0.3-0.8-0.8
			s0.3-0.8,0.8-0.8c0.4,0,0.8,0.3,0.8,0.8C32.8,23.1,32.4,23.4,32,23.4z M33.5,24c-0.2,0-0.4-0.2-0.4-0.4s0.2-0.4,0.4-0.4
			s0.4,0.2,0.4,0.4S33.7,24,33.5,24z"/>
		<path d="M25.9,32.9l0-0.1l0.7-3.4h-1c0.4-0.5,0.7-1,0.9-1.6c0.6-2.1-0.7-4.3-2.8-4.9c-2.1-0.6-4.3,0.7-4.9,2.8c0,0,0,0.1,0,0.1
			l-3.7,0.9L5,23.9c0.2-0.4,0.3-0.8,0.3-1.3c0-1.5-1.2-2.7-2.7-2.7S0,21.2,0,22.7C0,24,0.9,25,2.1,25.3l22,6.1l-22,6.1
			C0.9,37.6,0,38.7,0,40c0,1.5,1.2,2.7,2.7,2.7s2.7-1.2,2.7-2.7c0-0.5-0.1-0.9-0.3-1.3L15.1,36l3.7,0.9c0,0,0,0.1,0,0.1
			c0.6,2.1,2.8,3.4,4.9,2.8c1.8-0.5,2.9-2.1,2.9-3.8L26,33L25.9,32.9z M2.7,24c-0.7,0-1.3-0.6-1.3-1.3s0.6-1.3,1.3-1.3
			S4,21.9,4,22.7S3.4,24,2.7,24z M2.7,41.3c-0.7,0-1.3-0.6-1.3-1.3s0.6-1.3,1.3-1.3S4,39.3,4,40S3.4,41.3,2.7,41.3z M22,29.2
			c-1.3-0.4-2.1-1.6-1.9-2.9l5.1,1.4C24.6,28.9,23.3,29.6,22,29.2z M20,36.4c-0.2-1.3,0.6-2.6,1.9-2.9c1.3-0.4,2.6,0.3,3.1,1.6
			L20,36.4z M23.4,38.6c-1.3,0.4-2.6-0.3-3.1-1.6l5.1-1.4C25.5,37,24.7,38.2,23.4,38.6z M25.3,27l-5.1-1.4c0.5-1.2,1.8-1.9,3.1-1.6
			C24.7,24.4,25.5,25.7,25.3,27z"/>
		<path d="M61.9,37.4l-22-6.1l22-6.1C63.1,25,64,24,64,22.7c0-1.5-1.2-2.7-2.7-2.7s-2.7,1.2-2.7,2.7c0,0.5,0.1,0.9,0.3,1.3
			l-10.1,2.7l-3.7-0.9c0,0,0-0.1,0-0.1c-0.6-2.1-2.8-3.4-4.9-2.8c-2.1,0.6-3.4,2.8-2.8,4.9c0.2,0.6,0.5,1.2,0.9,1.6h-1.1l0.7,3.4
			l0,0.1l0,0.1l-0.6,3h0c0,1.8,1.2,3.4,2.9,3.9c2.1,0.6,4.3-0.7,4.9-2.8c0,0,0-0.1,0-0.1l3.7-0.9L59,38.7c-0.2,0.4-0.3,0.8-0.3,1.3
			c0,1.5,1.2,2.7,2.7,2.7S64,41.5,64,40C64,38.7,63.1,37.6,61.9,37.4z M61.3,21.3c0.7,0,1.3,0.6,1.3,1.3S62.1,24,61.3,24
			c-0.7,0-1.3-0.6-1.3-1.3S60.6,21.3,61.3,21.3z M44,26.3c0.2,1.3-0.6,2.6-1.9,2.9c-1.3,0.4-2.6-0.3-3.1-1.6L44,26.3z M40.6,24.1
			c1.3-0.4,2.6,0.3,3.1,1.6L38.7,27C38.5,25.7,39.3,24.4,40.6,24.1z M40.6,38.6c-1.3-0.4-2.1-1.6-1.9-2.9l5.1,1.4
			C43.3,38.2,42,38.9,40.6,38.6z M44,36.4L38.9,35c0.5-1.2,1.8-1.9,3.1-1.6C43.3,33.8,44.1,35,44,36.4z M61.3,41.3
			c-0.7,0-1.3-0.6-1.3-1.3s0.6-1.3,1.3-1.3c0.7,0,1.3,0.6,1.3,1.3S62.1,41.3,61.3,41.3z"/>
		<path d="M28.2,25.3l-1.6,7.5L28,40l1.6-4h4.8l1.6,4l1.3-7.2l-1.5-7.5H28.2z M28.4,30.7l0.7-3.2l0.4,3.2H28.4z M33.8,30.7h-3.5
			l-0.5-4h4.6L33.8,30.7z M34.4,30.7l0.4-3.2l0.6,3.2H34.4z"/>
		<path d="M30,36.7l-1.9,4.6l1,2.8h5.6l1-2.8L34,36.7H30z M33,39.3h-2v-2h2V39.3z"/>
	</g>
</g>
</svg>
